<!-- Uncomment following when using your own custom external stylesheet.-->
<!--
<?xml-stylesheet type="text/css" href="xppaut-stylesheet.css" ?>
-->
<svg  xmlns="http://www.w3.org/2000/svg"
      xmlns:xlink="http://www.w3.org/1999/xlink" font-size="12pt" width="640" height="400">


      <defs>
          <circle class="xpppointP" id = "xpppointP"  r = "1"  stroke-width = "1"/>
          <circle class="xppbead" id = "xppbead"  r = "1"  stroke-width = "1"/>
          <circle class="xpppointD" id = "xpppointD"  r = "1"  stroke-width = "1"/>
          <circle class="xpppointA" id = "xpppointA"  r = "1"  stroke-width = "1"/>
          <circle class="xpppointB" id = "xpppointB"  r = "1"  stroke-width = "1"/>
          <circle class="xpppointC" id = "xpppointC"  r = "1"  stroke-width = "1"/>
          <circle class="xpppointT" id = "xpppointT"  r = "1"  stroke-width = "1"/>
          <circle class="xpppointS" id = "xpppointS"  r = "1"  stroke-width = "1"/>
          <circle class="xpppointK" id = "xpppointK"  r = "3"  stroke-width = "0.75"/>
          <circle class="xpppointF" id = "xpppointF"  r = "2"  stroke-width = "0"/>
      </defs>



      <!-- Comment out the following style block when using your own custom external stylesheet.-->
      <!-- As a starting point for your custom external stylesheet, consider copying the style 
           information (between but not including CDATA tags) to a file named xppaut-stylesheet.css 
       -->
      <style type="text/css">
           <![CDATA[
      
                 circle.xpppointP {
                    stroke-width: 1.0;
                 }

                 circle.xpppointD {
                    stroke-width: 1.0;
                 }

                 circle.xpppointA {
                    stroke-width: 1.0;
                 }

                 circle.xpppointB {
                    stroke-width: 1.0;
                 }

                 circle.xpppointC {
                    stroke-width: 1.0;
                 }

                 circle.xpppointT {
                    stroke-width: 1.0;
                 }

                 circle.xpppointS {
                    stroke-width: 1.0;
                 }

                 circle.xpppointK {
                    stroke-width: 1.0;
                 }

                 circle.xpppointF {
                    stroke-width: 1.0;
                 }

                 line.xppaxes {
                    stroke: #000000;
                 }
                 line.xppboxaxes {
                    stroke: #000000;
                 }
                 line.xppdfield {
                    stroke: #000000;
                 }
                 line.xpplineb {
                    stroke: #000000;
                 }
                 line.xpplinea {
                    stroke-dasharray: 2,8;
                    stroke-width: 2;
                    stroke: #000000;
                 }
                 line.xppline0 {
                    stroke: #000000;
                 }
                 line.xppline1 {
                    stroke-width: 1;
                    stroke: #FF0000;
                 }
                 line.xppline2 {
                    stroke: #F06400;
                 }
                 line.xppline3 {
                    stroke: #FFA500;
                 }
                 line.xppline4 {
                    stroke: #FFCD00;
                 }
                 line.xppline5 {
                    stroke: #C8C800;
                 }
                 line.xppline6 {
                    stroke: #00FF00;
                 }
                 line.xppline7 {
                    stroke: #32CD32;
                 }
                 line.xppline8 {
                    stroke: #00C8C8;
                 }
                 line.xppline9 {
                    stroke: #0000FF;
                 }
                 line.xpplinec {
                    stroke: #000000;
                 }
                 
                 text.xpptext {
                    font-family: sans-serif;
                    font-size  : 1em;
                    stroke	: #000000;
                    fill	: #000000;
                    baseline-shift:-33%;
                    dominant-baseline: central;
                 }
                 text.xppyaxislabelh {
                    font-family: sans-serif;
                    font-size  : 1em;
                    stroke	: none;
                    fill	: none;
                    baseline-shift:-33%;
                    dominant-baseline: central;
                 }
                 text.xppyaxislabelv {
                    font-family: sans-serif;
                    font-size  : 1em;
                    stroke	: #000000;
                    fill	: #000000;
                    baseline-shift:-33%;
                    dominant-baseline: central;
                 }
                 text.xppaxestext {
                    font-family: sans-serif;
                    font-size  : 1em;
                    stroke	: #000000;
                    fill	: #000000;
                    baseline-shift:-33%;
                    dominant-baseline: central;
                 }
                 
                 text.xpptext0 {
                    font-family: sans-serif;
                    font-size  : 0.5em;
                    stroke	: #000000;
                    fill	: #000000;
                    baseline-shift:-33%;
                    dominant-baseline: central;
                 }
                 
                 text.xpptext1 {
                    font-family: sans-serif;
                    font-size  : 0.75em;
                    stroke	: #000000;
                    fill	: #000000;
                    baseline-shift:-33%;
                    dominant-baseline: central;
                 }
                 
                 text.xpptext2 {
                    font-family: sans-serif;
                    font-size  : 1em;
                    stroke	: #000000;
                    fill	: #000000;
                    baseline-shift:-33%;
                    dominant-baseline: central;
                 }
                 
                 text.xpptext3 {
                    font-family: sans-serif;
                    font-size  : 1.25em;
                    stroke	: #000000;
                    fill	: #000000;
                    baseline-shift:-33%;
                    dominant-baseline: central;
                 }
                 
                 text.xpptext4 {
                    font-family: sans-serif;
                    font-size  : 1.5em;
                    stroke	: #000000;
                    fill	: #000000;
                    baseline-shift:-33%;
                    dominant-baseline: central;
                 }
           ]]>
      </style>

      <line class="xppboxaxes"  x1="144"  y1="51" x2="595"   y2="51" />
      <line class="xppboxaxes"  x1="595"  y1="51" x2="595"   y2="329" />
      <line class="xppaxes"  x1="595"  y1="329" x2="144"   y2="329" />
      <line class="xppaxes"  x1="144"  y1="329" x2="144"   y2="51" />
      <line class="xppaxes"  x1="144"  y1="329" x2="153"   y2="329" />
      <line class="xppboxaxes"  x1="595"  y1="329" x2="586"   y2="329" />

      <text class="xppaxestext" text-anchor="end" x="129"  y="329"
      >-10</text>
      <line class="xppaxes"  x1="144"  y1="271" x2="153"   y2="271" />
      <line class="xppboxaxes"  x1="595"  y1="271" x2="586"   y2="271" />

      <text class="xppaxestext" text-anchor="end" x="129"  y="271"
      >-5</text>
      <line class="xppaxes"  x1="144"  y1="213" x2="153"   y2="213" />
      <line class="xppboxaxes"  x1="595"  y1="213" x2="586"   y2="213" />

      <text class="xppaxestext" text-anchor="end" x="129"  y="213"
      >0</text>
      <line class="xppaxes"  x1="144"  y1="155" x2="153"   y2="155" />
      <line class="xppboxaxes"  x1="595"  y1="155" x2="586"   y2="155" />

      <text class="xppaxestext" text-anchor="end" x="129"  y="155"
      >5</text>
      <line class="xppaxes"  x1="144"  y1="97" x2="153"   y2="97" />
      <line class="xppboxaxes"  x1="595"  y1="97" x2="586"   y2="97" />

      <text class="xppaxestext" text-anchor="end" x="129"  y="97"
      >10</text>

      <text class="xppyaxislabelv" text-anchor="middle" x="0"  y="0"
      transform="rotate(-90,75,180) translate(75,180)"
      >S</text>

      <text class="xppyaxislabelh" text-anchor="end" x="132"  y="12"
      >S</text>
      <line class="xppaxes"  x1="215"  y1="329" x2="215"   y2="320" />
      <line class="xppboxaxes"  x1="215"  y1="51" x2="215"   y2="60" />

      <text class="xppaxestext" text-anchor="middle" x="215"  y="354"
      >0</text>
      <line class="xppaxes"  x1="290"  y1="329" x2="290"   y2="320" />
      <line class="xppboxaxes"  x1="290"  y1="51" x2="290"   y2="60" />

      <text class="xppaxestext" text-anchor="middle" x="290"  y="354"
      >2</text>
      <line class="xppaxes"  x1="366"  y1="329" x2="366"   y2="320" />
      <line class="xppboxaxes"  x1="366"  y1="51" x2="366"   y2="60" />

      <text class="xppaxestext" text-anchor="middle" x="366"  y="354"
      >4</text>
      <line class="xppaxes"  x1="441"  y1="329" x2="441"   y2="320" />
      <line class="xppboxaxes"  x1="441"  y1="51" x2="441"   y2="60" />

      <text class="xppaxestext" text-anchor="middle" x="441"  y="354"
      >6</text>
      <line class="xppaxes"  x1="516"  y1="329" x2="516"   y2="320" />
      <line class="xppboxaxes"  x1="516"  y1="51" x2="516"   y2="60" />

      <text class="xppaxestext" text-anchor="middle" x="516"  y="354"
      >8</text>
      <line class="xppaxes"  x1="591"  y1="329" x2="591"   y2="320" />
      <line class="xppboxaxes"  x1="591"  y1="51" x2="591"   y2="60" />

      <text class="xppaxestext" text-anchor="middle" x="591"  y="354"
      >10</text>

      <text class="xppaxestext" text-anchor="middle" x="369"  y="379"
      >b</text>
      <line class="xppline0"  x1="249"  y1="203" x2="249"   y2="203" />
      <line class="xppline1"  x1="251"  y1="203" x2="249"   y2="203" />
      <line class="xppline1"  x1="252"  y1="203" x2="251"   y2="203" />
      <line class="xppline1"  x1="255"  y1="203" x2="252"   y2="203" />
      <line class="xppline1"  x1="261"  y1="203" x2="255"   y2="203" />
      <line class="xppline1"  x1="270"  y1="203" x2="261"   y2="203" />
      <line class="xppline0"  x1="282"  y1="203" x2="270"   y2="203" />
      <line class="xppline0"  x1="301"  y1="203" x2="282"   y2="203" />
      <line class="xppline0"  x1="270"  y1="203" x2="270"   y2="203" />
      <line class="xppline0"  x1="269"  y1="203" x2="270"   y2="203" />
      <line class="xppline0"  x1="268"  y1="203" x2="269"   y2="203" />
      <line class="xppline0"  x1="268"  y1="203" x2="268"   y2="203" />
      <line class="xppline0"  x1="267"  y1="202" x2="268"   y2="203" />
      <line class="xppline0"  x1="265"  y1="202" x2="267"   y2="202" />
      <line class="xppline0"  x1="262"  y1="201" x2="265"   y2="202" />
      <line class="xppline0"  x1="258"  y1="200" x2="262"   y2="201" />
      <line class="xppline0"  x1="254"  y1="199" x2="258"   y2="200" />
      <line class="xppline0"  x1="251"  y1="198" x2="254"   y2="199" />
      <line class="xppline0"  x1="247"  y1="196" x2="251"   y2="198" />
      <line class="xppline0"  x1="244"  y1="194" x2="247"   y2="196" />
      <line class="xppline0"  x1="243"  y1="193" x2="244"   y2="194" />
      <line class="xppline0"  x1="243"  y1="193" x2="243"   y2="193" />
      <line class="xppline1"  x1="243"  y1="193" x2="243"   y2="193" />
      <line class="xppline1"  x1="243"  y1="194" x2="243"   y2="193" />
      <line class="xppline1"  x1="243"  y1="194" x2="243"   y2="194" />
      <line class="xppline1"  x1="243"  y1="193" x2="243"   y2="194" />
      <line class="xppline1"  x1="243"  y1="194" x2="243"   y2="193" />
      <line class="xppline0"  x1="243"  y1="193" x2="243"   y2="194" />
      <line class="xppline1"  x1="243"  y1="193" x2="243"   y2="193" />
      <line class="xppline1"  x1="243"  y1="194" x2="243"   y2="193" />
      <line class="xppline1"  x1="243"  y1="194" x2="243"   y2="194" />
      <line class="xppline1"  x1="243"  y1="193" x2="243"   y2="194" />
      <line class="xppline1"  x1="243"  y1="194" x2="243"   y2="193" />
      <line class="xppline1"  x1="243"  y1="194" x2="243"   y2="194" />
      <line class="xppline1"  x1="243"  y1="194" x2="243"   y2="194" />
      <line class="xppline1"  x1="243"  y1="193" x2="243"   y2="194" />
      <line class="xppline1"  x1="243"  y1="194" x2="243"   y2="193" />
      <line class="xppline1"  x1="243"  y1="194" x2="243"   y2="194" />
      <line class="xppline1"  x1="243"  y1="193" x2="243"   y2="194" />
      <line class="xppline1"  x1="243"  y1="194" x2="243"   y2="193" />
      <line class="xppline0"  x1="243"  y1="193" x2="243"   y2="194" />
      <line class="xppline1"  x1="243"  y1="193" x2="243"   y2="193" />
      <line class="xppline1"  x1="243"  y1="194" x2="243"   y2="193" />
      <line class="xppline1"  x1="243"  y1="194" x2="243"   y2="194" />
      <line class="xppline1"  x1="243"  y1="194" x2="243"   y2="194" />
      <line class="xppline1"  x1="243"  y1="193" x2="243"   y2="194" />
      <line class="xppline1"  x1="243"  y1="194" x2="243"   y2="193" />
      <line class="xppline0"  x1="243"  y1="193" x2="243"   y2="194" />
      <line class="xppline1"  x1="243"  y1="194" x2="243"   y2="193" />
      <line class="xppline1"  x1="243"  y1="194" x2="243"   y2="194" />
      <line class="xppline1"  x1="243"  y1="193" x2="243"   y2="194" />
      <line class="xppline1"  x1="243"  y1="194" x2="243"   y2="193" />
      <line class="xppline1"  x1="243"  y1="194" x2="243"   y2="194" />
      <line class="xppline1"  x1="243"  y1="193" x2="243"   y2="194" />
      <line class="xppline1"  x1="243"  y1="194" x2="243"   y2="193" />
      <line class="xppline1"  x1="243"  y1="194" x2="243"   y2="194" />
      <line class="xppline1"  x1="243"  y1="193" x2="243"   y2="194" />
      <line class="xppline1"  x1="243"  y1="194" x2="243"   y2="193" />
      <line class="xppline1"  x1="243"  y1="194" x2="243"   y2="194" />
      <line class="xppline1"  x1="243"  y1="193" x2="243"   y2="194" />
      <line class="xppline1"  x1="243"  y1="194" x2="243"   y2="193" />
      <line class="xppline0"  x1="243"  y1="193" x2="243"   y2="194" />
      <line class="xppline1"  x1="243"  y1="193" x2="243"   y2="193" />
      <line class="xppline1"  x1="243"  y1="194" x2="243"   y2="193" />
      <line class="xppline1"  x1="243"  y1="194" x2="243"   y2="194" />
      <line class="xppline1"  x1="243"  y1="193" x2="243"   y2="194" />
      <line class="xppline1"  x1="243"  y1="194" x2="243"   y2="193" />
      <line class="xppline1"  x1="243"  y1="194" x2="243"   y2="194" />
      <line class="xppline1"  x1="243"  y1="193" x2="243"   y2="194" />
      <line class="xppline1"  x1="243"  y1="194" x2="243"   y2="193" />
      <line class="xppline0"  x1="243"  y1="193" x2="243"   y2="194" />
      <line class="xppline1"  x1="243"  y1="194" x2="243"   y2="193" />
      <line class="xppline1"  x1="243"  y1="194" x2="243"   y2="194" />
      <line class="xppline1"  x1="243"  y1="194" x2="243"   y2="194" />
      <line class="xppline1"  x1="243"  y1="194" x2="243"   y2="194" />
      <line class="xppline0"  x1="244"  y1="194" x2="243"   y2="194" />
      <line class="xppline0"  x1="245"  y1="195" x2="244"   y2="194" />
      <line class="xppline0"  x1="246"  y1="195" x2="245"   y2="195" />
      <line class="xppline0"  x1="247"  y1="196" x2="246"   y2="195" />
      <line class="xppline0"  x1="249"  y1="197" x2="247"   y2="196" />
      <line class="xppline0"  x1="251"  y1="198" x2="249"   y2="197" />
      <line class="xppline0"  x1="255"  y1="199" x2="251"   y2="198" />
      <line class="xppline0"  x1="257"  y1="200" x2="255"   y2="199" />
      <line class="xppline0"  x1="260"  y1="201" x2="257"   y2="200" />
      <line class="xppline0"  x1="267"  y1="203" x2="260"   y2="201" />
      <line class="xppline0"  x1="269"  y1="203" x2="267"   y2="203" />
      <line class="xppline0"  x1="267"  y1="203" x2="269"   y2="203" />
      <line class="xppline0"  x1="265"  y1="202" x2="267"   y2="203" />
      <line class="xppline0"  x1="262"  y1="201" x2="265"   y2="202" />
      <line class="xppline0"  x1="259"  y1="201" x2="262"   y2="201" />
      <line class="xppline0"  x1="254"  y1="199" x2="259"   y2="201" />
      <line class="xppline0"  x1="250"  y1="197" x2="254"   y2="199" />
      <line class="xppline0"  x1="246"  y1="196" x2="250"   y2="197" />
      <line class="xppline0"  x1="243"  y1="193" x2="246"   y2="196" />
      <line class="xppline0"  x1="240"  y1="191" x2="243"   y2="193" />
      <line class="xppline0"  x1="237"  y1="188" x2="240"   y2="191" />
      <line class="xppline0"  x1="235"  y1="185" x2="237"   y2="188" />
      <line class="xppline0"  x1="233"  y1="182" x2="235"   y2="185" />
      <line class="xppline0"  x1="230"  y1="177" x2="233"   y2="182" />
      <line class="xppline0"  x1="229"  y1="173" x2="230"   y2="177" />
      <line class="xppline0"  x1="227"  y1="168" x2="229"   y2="173" />
      <line class="xppline0"  x1="226"  y1="164" x2="227"   y2="168" />
      <line class="xppline0"  x1="225"  y1="159" x2="226"   y2="164" />
      <line class="xppline0"  x1="225"  y1="155" x2="225"   y2="159" />
      <line class="xppline0"  x1="224"  y1="150" x2="225"   y2="155" />
      <line class="xppline0"  x1="223"  y1="146" x2="224"   y2="150" />
      <line class="xppline0"  x1="223"  y1="141" x2="223"   y2="146" />
      <line class="xppline0"  x1="222"  y1="137" x2="223"   y2="141" />
      <line class="xppline0"  x1="222"  y1="132" x2="222"   y2="137" />
      <line class="xppline0"  x1="222"  y1="128" x2="222"   y2="132" />
      <line class="xppline0"  x1="221"  y1="123" x2="222"   y2="128" />
      <line class="xppline0"  x1="221"  y1="119" x2="221"   y2="123" />
      <line class="xppline0"  x1="221"  y1="114" x2="221"   y2="119" />
      <line class="xppline0"  x1="221"  y1="110" x2="221"   y2="114" />
      <line class="xppline0"  x1="220"  y1="105" x2="221"   y2="110" />
      <line class="xppline0"  x1="220"  y1="101" x2="220"   y2="105" />
      <line class="xppline0"  x1="220"  y1="96" x2="220"   y2="101" />
      <line class="xppline0"  x1="220"  y1="92" x2="220"   y2="96" />
      <line class="xppline0"  x1="220"  y1="87" x2="220"   y2="92" />
      <line class="xppline0"  x1="219"  y1="83" x2="220"   y2="87" />
      <line class="xppline0"  x1="219"  y1="78" x2="219"   y2="83" />
      <line class="xppline0"  x1="219"  y1="73" x2="219"   y2="78" />
      <line class="xppline0"  x1="219"  y1="69" x2="219"   y2="73" />
      <line class="xppline0"  x1="219"  y1="64" x2="219"   y2="69" />
      <line class="xppline0"  x1="219"  y1="60" x2="219"   y2="64" />
      <line class="xppline0"  x1="219"  y1="55" x2="219"   y2="60" />
      <line class="xppline0"  x1="219"  y1="52" x2="219"   y2="55" />
      <line class="xppline0"  x1="270"  y1="203" x2="270"   y2="203" />
      <line class="xppline0"  x1="271"  y1="203" x2="270"   y2="203" />
      <line class="xppline1"  x1="272"  y1="203" x2="271"   y2="203" />
      <line class="xppline1"  x1="272"  y1="204" x2="272"   y2="203" />
      <line class="xppline1"  x1="274"  y1="204" x2="272"   y2="204" />
      <line class="xppline1"  x1="276"  y1="204" x2="274"   y2="204" />
      <line class="xppline1"  x1="279"  y1="205" x2="276"   y2="204" />
      <line class="xppline1"  x1="284"  y1="205" x2="279"   y2="205" />
      <line class="xppline1"  x1="290"  y1="206" x2="284"   y2="205" />
      <line class="xppline1"  x1="296"  y1="206" x2="290"   y2="206" />
      <line class="xppline0"  x1="243"  y1="194" x2="243"   y2="194" />
      <line class="xppline1"  x1="289"  y1="206" x2="243"   y2="194" />
      <line class="xppline1"  x1="289"  y1="206" x2="289"   y2="206" />
      <line class="xppline0"  x1="243"  y1="194" x2="243"   y2="194" />
      <line class="xppline1"  x1="243"  y1="193" x2="243"   y2="194" />
      <line class="xppline0"  x1="243"  y1="193" x2="243"   y2="193" />
      <line class="xppline0"  x1="243"  y1="193" x2="243"   y2="193" />
      <line class="xppline0"  x1="243"  y1="193" x2="243"   y2="193" />
      <line class="xppline0"  x1="243"  y1="194" x2="243"   y2="193" />
      <line class="xppline0"  x1="244"  y1="194" x2="243"   y2="194" />
      <line class="xppline0"  x1="245"  y1="195" x2="244"   y2="194" />
      <line class="xppline0"  x1="245"  y1="195" x2="245"   y2="195" />
      <line class="xppline0"  x1="246"  y1="196" x2="245"   y2="195" />
      <line class="xppline0"  x1="248"  y1="196" x2="246"   y2="196" />
      <line class="xppline0"  x1="249"  y1="197" x2="248"   y2="196" />
      <line class="xppline0"  x1="251"  y1="198" x2="249"   y2="197" />
      <line class="xppline0"  x1="253"  y1="198" x2="251"   y2="198" />
      <line class="xppline0"  x1="255"  y1="199" x2="253"   y2="198" />
      <line class="xppline0"  x1="257"  y1="200" x2="255"   y2="199" />
      <line class="xppline0"  x1="261"  y1="201" x2="257"   y2="200" />
      <line class="xppline0"  x1="264"  y1="202" x2="261"   y2="201" />
      <line class="xppline0"  x1="269"  y1="203" x2="264"   y2="202" />
      <line class="xppline1"  x1="270"  y1="203" x2="269"   y2="203" />
      <line class="xppline1"  x1="275"  y1="204" x2="270"   y2="203" />
      <line class="xppline1"  x1="281"  y1="205" x2="275"   y2="204" />
      <line class="xppline1"  x1="287"  y1="205" x2="281"   y2="205" />
      <line class="xppline1"  x1="294"  y1="206" x2="287"   y2="205" />
      <line class="xppline0"  x1="267"  y1="203" x2="267"   y2="203" />
      <line class="xppline1"  x1="268"  y1="203" x2="267"   y2="203" />
      <line class="xppline0"  x1="268"  y1="203" x2="268"   y2="203" />
      <line class="xppline0"  x1="269"  y1="203" x2="268"   y2="203" />
      <line class="xppline0"  x1="269"  y1="203" x2="269"   y2="203" />
      <line class="xppline0"  x1="269"  y1="203" x2="269"   y2="203" />
      <line class="xppline0"  x1="267"  y1="203" x2="269"   y2="203" />
      <line class="xppline0"  x1="266"  y1="202" x2="267"   y2="203" />
      <line class="xppline0"  x1="264"  y1="202" x2="266"   y2="202" />
      <line class="xppline0"  x1="262"  y1="201" x2="264"   y2="202" />
      <line class="xppline0"  x1="269"  y1="203" x2="262"   y2="201" />
      <line class="xppline0"  x1="265"  y1="202" x2="269"   y2="203" />
      <line class="xppline0"  x1="263"  y1="202" x2="265"   y2="202" />
      <line class="xppline0"  x1="261"  y1="201" x2="263"   y2="202" />
      <line class="xppline0"  x1="251"  y1="198" x2="261"   y2="201" />
      <line class="xppline0"  x1="250"  y1="197" x2="251"   y2="198" />
      <line class="xppline0"  x1="247"  y1="196" x2="250"   y2="197" />
      <line class="xppline0"  x1="245"  y1="195" x2="247"   y2="196" />
      <line class="xppline0"  x1="244"  y1="194" x2="245"   y2="195" />
      <line class="xppline0"  x1="244"  y1="194" x2="244"   y2="194" />
      <line class="xppline0"  x1="247"  y1="196" x2="244"   y2="194" />
      <line class="xppline0"  x1="246"  y1="195" x2="247"   y2="196" />
      <line class="xppline0"  x1="244"  y1="194" x2="246"   y2="195" />
      <line class="xppline1"  x1="243"  y1="193" x2="244"   y2="194" />
      <line class="xppline0"  x1="243"  y1="193" x2="243"   y2="193" />
      <line class="xppline0"  x1="250"  y1="198" x2="243"   y2="193" />
      <line class="xppline0"  x1="255"  y1="199" x2="250"   y2="198" />
      <line class="xppline0"  x1="262"  y1="201" x2="255"   y2="199" />
      <line class="xppline1"  x1="270"  y1="203" x2="262"   y2="201" />
      <line class="xppline0"  x1="280"  y1="203" x2="270"   y2="203" />
      <line class="xppline0"  x1="299"  y1="203" x2="280"   y2="203" />
      <line class="xppline0"  x1="267"  y1="203" x2="267"   y2="203" />
      <line class="xppline0"  x1="267"  y1="202" x2="267"   y2="203" />
      <line class="xppline0"  x1="266"  y1="202" x2="267"   y2="202" />
      <line class="xppline0"  x1="265"  y1="202" x2="266"   y2="202" />
      <line class="xppline0"  x1="264"  y1="202" x2="265"   y2="202" />
      <line class="xppline0"  x1="262"  y1="201" x2="264"   y2="202" />
      <line class="xppline0"  x1="259"  y1="201" x2="262"   y2="201" />
      <line class="xppline0"  x1="256"  y1="200" x2="259"   y2="201" />
      <line class="xppline0"  x1="252"  y1="198" x2="256"   y2="200" />
      <line class="xppline0"  x1="249"  y1="197" x2="252"   y2="198" />
      <line class="xppline0"  x1="245"  y1="195" x2="249"   y2="197" />
      <line class="xppline0"  x1="243"  y1="193" x2="245"   y2="195" />
      <line class="xppline0"  x1="240"  y1="191" x2="243"   y2="193" />
      <line class="xppline0"  x1="237"  y1="189" x2="240"   y2="191" />
      <line class="xppline0"  x1="235"  y1="186" x2="237"   y2="189" />
      <line class="xppline0"  x1="233"  y1="182" x2="235"   y2="186" />
      <line class="xppline0"  x1="230"  y1="177" x2="233"   y2="182" />
      <line class="xppline0"  x1="229"  y1="173" x2="230"   y2="177" />
      <line class="xppline0"  x1="227"  y1="168" x2="229"   y2="173" />
      <line class="xppline0"  x1="226"  y1="164" x2="227"   y2="168" />
      <line class="xppline0"  x1="225"  y1="159" x2="226"   y2="164" />
      <line class="xppline0"  x1="225"  y1="155" x2="225"   y2="159" />
      <line class="xppline0"  x1="224"  y1="150" x2="225"   y2="155" />
      <line class="xppline0"  x1="223"  y1="146" x2="224"   y2="150" />
      <line class="xppline0"  x1="223"  y1="141" x2="223"   y2="146" />
      <line class="xppline0"  x1="222"  y1="137" x2="223"   y2="141" />
      <line class="xppline0"  x1="222"  y1="132" x2="222"   y2="137" />
      <line class="xppline0"  x1="222"  y1="128" x2="222"   y2="132" />
      <line class="xppline0"  x1="221"  y1="123" x2="222"   y2="128" />
      <line class="xppline0"  x1="221"  y1="118" x2="221"   y2="123" />
      <line class="xppline0"  x1="221"  y1="114" x2="221"   y2="118" />
      <line class="xppline0"  x1="221"  y1="109" x2="221"   y2="114" />
      <line class="xppline0"  x1="220"  y1="105" x2="221"   y2="109" />
      <line class="xppline0"  x1="220"  y1="100" x2="220"   y2="105" />
      <line class="xppline0"  x1="220"  y1="96" x2="220"   y2="100" />
      <line class="xppline0"  x1="220"  y1="91" x2="220"   y2="96" />
      <line class="xppline0"  x1="220"  y1="87" x2="220"   y2="91" />
      <line class="xppline0"  x1="219"  y1="82" x2="220"   y2="87" />
      <line class="xppline0"  x1="219"  y1="78" x2="219"   y2="82" />
      <line class="xppline0"  x1="219"  y1="73" x2="219"   y2="78" />
      <line class="xppline0"  x1="219"  y1="69" x2="219"   y2="73" />
      <line class="xppline0"  x1="219"  y1="64" x2="219"   y2="69" />
      <line class="xppline0"  x1="219"  y1="60" x2="219"   y2="64" />
      <line class="xppline0"  x1="219"  y1="55" x2="219"   y2="60" />
      <line class="xppline0"  x1="219"  y1="52" x2="219"   y2="55" />
      <line class="xppline0"  x1="270"  y1="203" x2="270"   y2="203" />
      <line class="xppline0"  x1="271"  y1="203" x2="270"   y2="203" />
      <line class="xppline0"  x1="272"  y1="203" x2="271"   y2="203" />
      <line class="xppline0"  x1="273"  y1="203" x2="272"   y2="203" />
      <line class="xppline0"  x1="275"  y1="203" x2="273"   y2="203" />
      <line class="xppline0"  x1="278"  y1="203" x2="275"   y2="203" />
      <line class="xppline0"  x1="285"  y1="203" x2="278"   y2="203" />
      <line class="xppline0"  x1="298"  y1="203" x2="285"   y2="203" />
      <line class="xppline0"  x1="270"  y1="203" x2="270"   y2="203" />
      <line class="xppline0"  x1="269"  y1="203" x2="270"   y2="203" />
      <line class="xppline1"  x1="268"  y1="203" x2="269"   y2="203" />
      <line class="xppline1"  x1="267"  y1="203" x2="268"   y2="203" />
      <line class="xppline1"  x1="266"  y1="203" x2="267"   y2="203" />
      <line class="xppline1"  x1="263"  y1="203" x2="266"   y2="203" />
      <line class="xppline1"  x1="257"  y1="203" x2="263"   y2="203" />
      <line class="xppline1"  x1="245"  y1="203" x2="257"   y2="203" />
      <line class="xppline1"  x1="226"  y1="203" x2="245"   y2="203" />
      <line class="xppline1"  x1="207"  y1="203" x2="226"   y2="203" />
      <line class="xppline0"  x1="250"  y1="198" x2="250"   y2="198" />
      <line class="xppline1"  x1="264"  y1="203" x2="250"   y2="198" />
      <line class="xppline1"  x1="264"  y1="203" x2="264"   y2="203" />
      <line class="xppline1"  x1="264"  y1="203" x2="264"   y2="203" />
      <line class="xppline1"  x1="264"  y1="203" x2="264"   y2="203" />
      <line class="xppline1"  x1="264"  y1="203" x2="264"   y2="203" />
      <line class="xppline1"  x1="264"  y1="203" x2="264"   y2="203" />
      <line class="xppline1"  x1="265"  y1="203" x2="264"   y2="203" />
      <line class="xppline1"  x1="265"  y1="203" x2="265"   y2="203" />
      <line class="xppline1"  x1="267"  y1="203" x2="265"   y2="203" />
      <line class="xppline1"  x1="270"  y1="203" x2="267"   y2="203" />
      <line class="xppline1"  x1="270"  y1="203" x2="270"   y2="203" />
      <line class="xppline0"  x1="276"  y1="203" x2="270"   y2="203" />
      <line class="xppline0"  x1="288"  y1="203" x2="276"   y2="203" />
      <line class="xppline0"  x1="307"  y1="203" x2="288"   y2="203" />
      <line class="xppline0"  x1="250"  y1="198" x2="250"   y2="198" />
      <line class="xppline0"  x1="262"  y1="203" x2="250"   y2="198" />
      <line class="xppline1"  x1="262"  y1="203" x2="262"   y2="203" />
      <line class="xppline1"  x1="262"  y1="203" x2="262"   y2="203" />
      <line class="xppline1"  x1="262"  y1="203" x2="262"   y2="203" />
      <line class="xppline1"  x1="262"  y1="203" x2="262"   y2="203" />
      <line class="xppline1"  x1="263"  y1="203" x2="262"   y2="203" />
      <line class="xppline1"  x1="263"  y1="203" x2="263"   y2="203" />
      <line class="xppline1"  x1="264"  y1="203" x2="263"   y2="203" />
      <line class="xppline1"  x1="265"  y1="203" x2="264"   y2="203" />
      <line class="xppline1"  x1="268"  y1="203" x2="265"   y2="203" />
      <line class="xppline1"  x1="270"  y1="203" x2="268"   y2="203" />
      <line class="xppline0"  x1="276"  y1="203" x2="270"   y2="203" />
      <line class="xppline0"  x1="288"  y1="203" x2="276"   y2="203" />
      <line class="xppline0"  x1="307"  y1="203" x2="288"   y2="203" />
      <use xlink:href = "#xpppointK" x="251" y="198" style="stroke:#0000FF; fill:none"/>
      <use xlink:href = "#xpppointK" x="251" y="198" style="stroke:#0000FF; fill:none"/>
      <use xlink:href = "#xpppointK" x="251" y="198" style="stroke:#0000FF; fill:none"/>
      <use xlink:href = "#xpppointK" x="251" y="198" style="stroke:#0000FF; fill:none"/>
</svg>
